<svg width="95" height="83" viewBox="0 0 95 83" fill="none" xmlns="http://www.w3.org/2000/svg">
<path fill-rule="evenodd" clip-rule="evenodd" d="M30.688 19.7087L47.688 17.0244C47.8945 16.9919 48.1055 16.9919 48.312 17.0244L65.312 19.7087C66.2842 19.862 67 20.6999 67 21.6843V53.9753C67 57.9753 57.6001 67.4753 48 67.4753C38.3999 67.4753 29 57.9753 29 53.9753V21.6843C29 20.6999 29.7158 19.862 30.688 19.7087ZM32.4585 22.0119L47.7202 19.6022C47.9058 19.5729 48.0947 19.5729 48.2803 19.6022L63.542 22.0119C64.4146 22.1498 65.0576 22.902 65.0576 23.7856V52.7748C65.0576 56.3659 56.6187 64.8945 48 64.8945C39.3818 64.8945 30.9429 56.3659 30.9429 52.7748V23.7856C30.9429 22.902 31.5854 22.1498 32.4585 22.0119Z" fill="url(#paint0_linear_1527_19217)"/>
<path fill-rule="evenodd" clip-rule="evenodd" d="M32.6818 45.5804L31 45.4941V46.7447H40.4872V45.4941L38.3741 45.5804C37.7991 45.5804 37.5116 45.2641 37.5116 44.6317V34.4114H39.3228C41.3353 34.4114 43.0314 34.9432 44.4114 36.007C45.8201 37.0707 46.812 38.7273 46.812 40.9051L46.8146 40.9264C46.7433 41.347 46.7077 41.7795 46.7077 42.2239C46.7077 43.6613 47.13 45.0071 47.9349 46.0708C48.7399 47.1345 49.8989 47.8874 51.4513 48.5199L55.8499 50.2879C57.1723 50.8054 58.2073 51.4954 58.9548 52.3579C59.731 53.1916 60.1191 54.1691 60.1191 55.2903C60.0904 56.8427 59.6448 58.0933 58.7823 59.042C57.9486 59.9907 56.813 60.4651 55.3755 60.4651C50.7469 60.4651 48.102 57.8058 47.4408 52.4872H46.3627C46.5927 53.2347 46.7077 54.7728 46.7077 57.1014C46.7077 58.8839 46.6502 60.077 46.5352 60.6807L47.1821 60.5513C47.4696 60.4938 47.7427 60.4651 48.0014 60.4651C48.7489 60.4651 49.8845 60.6807 51.4082 61.1119C52.1556 61.3419 52.86 61.4857 53.5212 61.5432C54.1824 61.6294 54.9587 61.6725 55.8499 61.6725C57.3161 61.6725 58.6673 61.3563 59.9035 60.7238C61.1684 60.0626 62.1603 59.157 62.879 58.007C63.6265 56.8283 64.0002 55.4915 64.0002 53.9966C64.0002 52.3004 63.5259 50.9204 62.5771 49.8567C61.6572 48.7642 60.1047 47.7724 57.9198 46.8812L53.9525 45.2856C52.8025 44.8256 51.8969 44.2219 51.2357 43.4744C50.5745 42.6982 50.2438 41.8357 50.2438 40.887C50.2438 39.4208 50.7038 38.2852 51.6238 37.4803C52.5438 36.6466 53.7512 36.2297 55.2462 36.2297C57.0861 36.2297 58.6098 36.819 59.8172 37.9978C61.0535 39.1477 61.6716 40.657 61.6716 42.5257H62.7928C62.6778 42.2095 62.6059 41.8645 62.5771 41.4908C62.5484 41.117 62.534 40.4989 62.534 39.6364C62.534 38.1702 62.5771 37.0922 62.6634 36.4022C62.3472 36.5172 61.9303 36.5747 61.4128 36.5747C61.0966 36.5747 60.7085 36.4884 60.2485 36.3159C60.0185 36.2297 59.5873 36.0859 58.9548 35.8847C58.3223 35.6547 57.6754 35.4678 57.0142 35.3241C56.3817 35.1516 55.6055 35.0654 54.6856 35.0654C52.9894 35.0654 51.5375 35.396 50.3301 36.0572C49.8911 36.2871 49.4921 36.5474 49.1329 36.8382C48.5964 35.9951 47.9569 35.3299 47.2144 34.8426C46.3232 34.2389 45.432 33.937 44.5408 33.937C46.122 33.5058 47.3869 32.7583 48.3356 31.6946C49.3131 30.6022 49.8018 29.3228 49.8018 27.8566C49.8018 25.4417 49.0831 23.7024 47.6457 22.6387C46.2082 21.5462 43.8939 21 40.7028 21H31V22.2937L32.5524 22.2075C32.8687 22.1787 33.0987 22.265 33.2424 22.4662C33.4149 22.6387 33.5012 22.8543 33.5012 23.113V44.6317C33.5012 45.2641 33.228 45.5804 32.6818 45.5804ZM44.627 31.824C43.8795 32.7727 42.8446 33.2471 41.5221 33.2471H37.5116V22.6387C37.5116 22.3512 37.6841 22.2075 38.0291 22.2075H40.7028C42.4277 22.2075 43.6927 22.6531 44.4976 23.5443C45.3314 24.4355 45.7482 25.8729 45.7482 27.8566C45.7482 29.5528 45.3745 30.8753 44.627 31.824Z" fill="url(#paint1_linear_1527_19217)"/>
<defs>
<linearGradient id="paint0_linear_1527_19217" x1="30" y1="20.5" x2="75.4591" y2="47.1774" gradientUnits="userSpaceOnUse">
<stop offset="0.022096" stop-color="#9251E3"/>
<stop offset="0.333333" stop-color="#3055D7"/>
<stop offset="0.489583" stop-color="#5F7DE9"/>
<stop offset="0.682292" stop-color="#3055D7"/>
<stop offset="1" stop-color="#18D141"/>
</linearGradient>
<linearGradient id="paint1_linear_1527_19217" x1="30" y1="20.5" x2="75.4591" y2="47.1774" gradientUnits="userSpaceOnUse">
<stop offset="0.022096" stop-color="#9251E3"/>
<stop offset="0.333333" stop-color="#3055D7"/>
<stop offset="0.489583" stop-color="#5F7DE9"/>
<stop offset="0.682292" stop-color="#3055D7"/>
<stop offset="1" stop-color="#18D141"/>
</linearGradient>
</defs>
</svg>
